<?xml version="1.0" encoding="utf-8"?>
<!-- Generator: Adobe Illustrator 25.0.1, SVG Export Plug-In . SVG Version: 6.00 Build 0)  -->
<svg version="1.1" id="Calque_1" focusable="false" xmlns="http://www.w3.org/2000/svg" xmlns:xlink="http://www.w3.org/1999/xlink"
	 x="0px" y="0px" viewBox="0 0 663.1 663.1" style="enable-background:new 0 0 663.1 663.1;" xml:space="preserve">
<style type="text/css">
	.st0{fill:#FFFFFF;stroke:#000000;stroke-miterlimit:10;}
	.st1{fill:#FFFFFF;}
</style>
<path class="st0" d="M-77.4,145.6c0-3.9,0-7,0-7S-77.4,141.7-77.4,145.6c0,3.9,0,7,0,7S-77.4,149.4-77.4,145.6z"/>
<path class="st1" d="M331.6,0C148.5,0,0,148.5,0,331.6s148.5,331.6,331.6,331.6s331.6-148.5,331.6-331.6S514.7,0,331.6,0z
	 M562.4,436.2c0,27.4-22.3,49.8-49.8,49.8H400.7l-97.1,72.8c-6.1,4.5-14.8,0.1-14.8-7.5V486H152c-27.4,0-49.8-22.3-49.8-49.8V212.4
	c0-27.4,22.3-49.8,49.8-49.8h360.7c27.4,0,49.8,22.3,49.8,49.8L562.4,436.2L562.4,436.2z"/>
</svg>
