<?xml version="1.0" encoding="utf-8"?>
<!-- Generator: Adobe Illustrator 25.1.0, SVG Export Plug-In . SVG Version: 6.00 Build 0)  -->
<svg version="1.1" id="Calque_1" focusable="false" xmlns="http://www.w3.org/2000/svg" xmlns:xlink="http://www.w3.org/1999/xlink"
	 x="0px" y="0px" viewBox="0 0 663.1 663.1" style="enable-background:new 0 0 663.1 663.1;" xml:space="preserve">
<style type="text/css">
	.st0{display:none;fill:#FFFFFF;}
	.st1{display:none;fill:#FFFFFF;stroke:#000000;stroke-miterlimit:10;}
	.st2{fill:#FFFFFF;}
</style>
<path class="st0" d="M331.6,0C148.5,0,0,148.5,0,331.6s148.5,331.6,331.6,331.6s331.6-148.5,331.6-331.6S514.7,0,331.6,0z
	 M331.6,57.6c70.7,0,128,57.3,128,128s-57.3,128-128,128s-128-57.3-128-128S260.9,57.6,331.6,57.6z M555.6,521.6
	c0,26.5-21.5,48-48,48h-352c-26.5,0-48-21.5-48-48V480c0-74.2,60.2-134.4,134.4-134.4h16.7c22.3,10.2,46.9,16,72.9,16
	s50.7-5.8,72.9-16h16.7c74.2,0,134.4,60.2,134.4,134.4V521.6z"/>
<path class="st1" d="M-77.4,145.6c0-3.9,0-7,0-7S-77.4,141.7-77.4,145.6c0,3.9,0,7,0,7S-77.4,149.4-77.4,145.6z"/>
<path class="st2" d="M331.6-1.3C148.5-1.3,0,147.1,0,330.2s148.4,331.5,331.5,331.5s331.5-148.4,331.5-331.5S514.7-1.3,331.6-1.3z
	 M291.6,102.2c0-13.3,10.7-24,24-24h32c13.3,0,24,10.7,24,24v240c0,13.3-10.7,24-24,24h-32c-13.3,0-24-10.7-24-24V102.2z
	 M332.1,582.2c-136.5,0.3-248.3-111-248.5-247.6c-0.1-83.3,40.9-157.1,103.8-202.2c11.7-8.3,28-4.8,35,7.7l15.8,28.1
	c5.9,10.5,3.1,23.8-6.6,31c-41.5,30.8-68,79.6-68,134.9c-0.1,92.3,74.5,168.1,168,168.1c91.6,0,168.6-74.2,168-169.1
	c-0.3-51.8-24.7-101.8-68.1-134c-9.7-7.2-12.4-20.5-6.5-30.9l15.8-28.1c7-12.4,23.2-16.1,34.8-7.8c63,45,104,118.6,104,201.9
	C579.6,471,468.8,581.9,332.1,582.2z"/>
</svg>
