<?xml version="1.0" encoding="utf-8"?>
<!-- Generator: Adobe Illustrator 25.0.1, SVG Export Plug-In . SVG Version: 6.00 Build 0)  -->
<svg version="1.1" id="Calque_1" focusable="false" xmlns="http://www.w3.org/2000/svg" xmlns:xlink="http://www.w3.org/1999/xlink"
	 x="0px" y="0px" viewBox="0 0 512 512" style="enable-background:new 0 0 512 512;" xml:space="preserve">
<path d="M128,264V24c0-13.3-10.7-24-24-24L24,0C10.7,0,0,10.7,0,24l0,240c0,13.3,10.7,24,24,24h80C117.3,288,128,277.3,128,264z
	 M88,64c0,13.3-10.7,24-24,24S40,77.3,40,64s10.7-24,24-24S88,50.7,88,64z M312,512c-20.2,0-29.5-39.3-33.9-57.8
	c-5.2-21.7-10.6-44.1-25.4-58.9c-32.5-32.5-49.5-74-89.1-113.1c-2.3-2.2-3.6-5.3-3.6-8.5V59.9c0-6.5,5.2-11.9,11.8-12
	c15.8-0.3,36.7-9.1,52.7-16.2C256.2,17.6,295.7,0,344,0l2.8,0c42.8,0,93.4,0.4,113.8,29.7c8.4,12.1,10.4,27,6.1,44.6
	c16.3,17.1,25.1,48.9,16.4,74.8c17.5,23.4,19.1,56.1,9.3,79.5l0.1,0.1c11.9,11.9,19.5,31.3,19.4,49.2c-0.2,30.4-26.2,58.1-59.6,58.1
	H350.7c7.3,28.3,33.3,52.1,33.3,94.5C384,504,336,512,312,512z"/>
</svg>
