<?xml version="1.0" encoding="utf-8"?>
<!-- Generator: Adobe Illustrator 25.0.1, SVG Export Plug-In . SVG Version: 6.00 Build 0)  -->
<svg version="1.1" id="Calque_1" focusable="false" xmlns="http://www.w3.org/2000/svg" xmlns:xlink="http://www.w3.org/1999/xlink"
	 x="0px" y="0px" viewBox="0 0 663.1 663.1" style="enable-background:new 0 0 663.1 663.1;" xml:space="preserve">
<style type="text/css">
	.st0{fill:#FFFFFF;stroke:#000000;stroke-miterlimit:10;}
</style>
<path d="M331.6,0C148.5,0,0,148.5,0,331.6s148.5,331.6,331.6,331.6s331.6-148.5,331.6-331.6S514.7,0,331.6,0z M331.6,57.6
	c70.7,0,128,57.3,128,128s-57.3,128-128,128s-128-57.3-128-128S260.9,57.6,331.6,57.6z M555.6,521.6c0,26.5-21.5,48-48,48h-352
	c-26.5,0-48-21.5-48-48V480c0-74.2,60.2-134.4,134.4-134.4h16.7c22.3,10.2,46.9,16,72.9,16s50.7-5.8,72.9-16h16.7
	c74.2,0,134.4,60.2,134.4,134.4V521.6z"/>
<path class="st0" d="M-77.4,145.6c0-3.9,0-7,0-7S-77.4,141.7-77.4,145.6c0,3.9,0,7,0,7S-77.4,149.4-77.4,145.6z"/>
</svg>
